<svg xmlns="http://www.w3.org/2000/svg" enable-background="new 0 0 40 40" viewBox="0 0 40 40" id="disney">
  <switch>
    <g>
      <path fill-rule="evenodd" d="M20.1,14.8c0.6,0,1,0.5,0.8,1.1c-0.6,1.2-2.2,2-3.3,1.6c-0.2,0.1-0.3,0.4-0.5,0.3
			c-0.3-0.2,0-0.6-0.2-0.9c0-0.1-0.1-0.1-0.2-0.2c-0.2-0.5,0.1-1.1,0.4-1.5C17.6,14.6,19.2,13.9,20.1,14.8z M18.2,15.3
			c-0.3,0.1-0.7,0.2-0.9,0.4c-0.2,0.2-0.3,0.4-0.2,0.7c0.4-0.3,0.6-0.7,1.1-1C18.2,15.3,18.3,15.3,18.2,15.3z M20.1,15.4
			c-0.8-0.1-1.4,0.5-2,1.1c0,0.1-0.2,0.2-0.1,0.3c0.8,0.1,1.5-0.2,2.1-0.7C20.4,15.9,20.5,15.5,20.1,15.4z M26.2,17.6
			c-0.2,0.1-0.1,0.4-0.1,0.6c0.2,0.7,0.4,1.4,0.5,2.2c0,0.2,0.1,0.5-0.1,0.6c-0.3-0.3-0.5-0.7-0.7-1.1c-0.3-0.5-0.6-1.1-1.2-1.4
			c-0.4,0.3-0.4,0.8-0.6,1.2c0,0.6-0.6,2.9,0.4,2.8c0.6-0.6,0.2-1.7,0.4-2.5c0,0,0-0.1,0.1-0.1c0.5,0.8,0.8,1.7,1.6,2.3
			c0.2,0.2,0.5,0,0.7-0.2c0.7-0.9,0.4-2.3,0-3.3C26.9,18.4,26.7,17.9,26.2,17.6z M23.4,18.4c-1.4-0.3-3.1-0.3-4.2,0.6
			C19,19.3,19,19.7,19.1,20c0,0.1,0.3,0.2,0.4,0.3c0.9,0.1,1.7,0.1,2.5,0.3c0.3,0.1,0.7,0.2,0.7,0.6c0,0.1-0.1,0.2-0.2,0.2
			c-0.9,0.3-2,0.6-2.9,0.1c-0.1-0.1,0-0.3,0.1-0.3c0.8-0.4,1.4,0.6,2.2,0.2c0.1-0.1,0.4-0.1,0.3-0.3c-0.7-0.4-1.8-0.6-2.6-0.3
			c-0.2,0.1-0.3,0.3-0.3,0.6c0.3,1.7,4.4,1.8,4.2-0.2c0-0.5-0.2-1-0.7-1.1c-0.9-0.2-1.8-0.3-2.8-0.4c-0.1,0-0.2-0.1-0.2-0.2
			c1.1-0.4,2.3-0.2,3.5-0.4c0.1,0,0.3-0.2,0.3-0.4C23.6,18.5,23.5,18.5,23.4,18.4z M18.1,18.3c-0.1-0.1-0.2,0-0.3,0.1
			c-0.2,0.8-0.2,1.7-0.3,2.5c0,0.5-0.1,1.1,0.2,1.6c0.1,0.1,0.3,0.1,0.5,0.1c0.1-0.1,0.3-0.1,0.3-0.2c0-1.2,0-2.2-0.1-3.4
			C18.4,18.8,18.4,18.5,18.1,18.3z M31.1,18.4c-0.7-0.1-1.5,0-2.2,0.1c-0.3,0-0.6,0-0.9,0.1c-0.1,0.5,0.5,0.5,0.7,0.7
			c-0.2,0.2-0.1,0.7-0.5,0.7c-0.1,0-0.2,0.2-0.2,0.3c0.2,0.4-0.1,0.7-0.2,1.1c-0.1,0.5,0,1.1,0.4,1.3c1,0.4,2-0.2,2.7-0.8
			c0.1-0.2,0-0.4-0.1-0.5c-0.4-0.1-0.9,0-1.4,0.1c-0.2,0-0.4,0.2-0.6,0c0.1-0.3,0.1-0.7,0.4-0.8c0.2-0.1,1,0,1.4-0.1
			c0.2,0,0.2-0.4,0.2-0.5c-0.2-0.4-0.8-0.2-1.2-0.2c-0.1,0-0.1,0-0.2-0.1c-0.1-0.2,0.1-0.4,0.2-0.6c0.6-0.1,1.3,0,1.9-0.2
			c0.1-0.1,0.1-0.2,0-0.3C31.5,18.7,31.3,18.4,31.1,18.4z M14.7,16.2c5.2,4.2,0.8,8.2-4.5,6.9c-0.1,0.2-0.2,0.5-0.4,0.6
			c-0.2,0.1-0.4,0-0.5-0.1c-0.4-0.3-0.1-1-0.6-1.2c-1-0.4-2.2-1.3-2.7-2.4c-0.3-1,2.3-1.6,3-1.7c0.1,0,0-0.1,0.1-0.1
			c0.1-0.7,0.1-1.4,0.3-2.1c0.1-0.1,0.2-0.1,0.3-0.1c0.6,0.5,0.3,1.4,0.6,2.1c1.2,0.1,2.5,0.1,3.5,0.8c0.3,0.3,0.4,0.8,0.3,1.1
			c-0.1,0.3-0.4,0.5-0.8,0.5c-0.2,0-0.6,0-0.6-0.1c0-0.2,0.7-0.4,0.5-0.6c-0.3-0.3-1.9-0.5-2.8-0.6c-0.1,0-0.2,0-0.2,0.1
			c0,0.9-0.1,1.9,0.1,2.8c0,0.1,0.1,0.1,0.1,0.1c2.1,0.4,5.9-0.1,5.5-2.8c-1-3.6-7-5.6-10.5-5.3c-0.3,0-0.9,0.1-0.9,0.3
			s0.6,0.1,0.5,0.3c-0.1,0.2-0.7,0.1-0.9,0C4,14.7,4,14.5,4,14.3c0.5-0.8,1.7-0.9,2.3-0.9C9.6,13.3,12.7,14.5,14.7,16.2z M8.9,19.4
			c-0.8,0-1.7,0.1-2.4,0.4c-0.2,0.1-0.3,0.2-0.2,0.4c0.3,0.4,0.7,0.8,1.2,1c0.4,0.2,1,0.5,1.5,0.6C9,21,9,20.2,8.9,19.4
			C8.9,19.4,9,19.4,8.9,19.4z M33.3,18.3c0,1-1,1.7-1,2.7c0,0,0.1,0.1,0.1,0.1c0.8-0.8,1.5-2,2.6-2.4c0.3,0,0.6,0.2,0.7,0.4
			c0.4,0.8,0.3,1.9-0.2,2.6c-0.6,0.7-1.5,1.4-2.6,1.3c-0.5,1.1-0.8,2.3-1,3.6c-0.1,0.2-0.3,0-0.5,0c-1.1-1,0.1-3.5,0.4-4.4
			c-0.7-1.3,0.3-3,1.3-3.9C33.2,18.2,33.3,18.2,33.3,18.3z M35.2,19.6c-0.1,0-0.2,0.2-0.3,0.2c-0.5,0.6-1.1,1.2-1.4,2
			c0.4,0,0.7-0.2,1-0.3c0.5-0.3,0.9-0.9,0.8-1.6C35.4,19.7,35.3,19.7,35.2,19.6z" clip-rule="evenodd"></path>
    </g>
  </switch>
</svg>